<svg height="512pt" viewBox="0 -4 512 512" width="512pt" xmlns="http://www.w3.org/2000/svg"><path d="m435.199219 192c.03125-1.425781-.027344-2.847656-.179688-4.265625-2.21875-56.917969-51.019531-68.265625-110.753906-68.265625-59.730469 0-108.535156 11.347656-110.753906 68.265625-.148438 1.417969-.210938 2.839844-.179688 4.265625zm0 0" fill="#e64c3c"/><path d="m162.132812 273.066406c-4.710937 0-8.53125-3.820312-8.53125-8.53125v-8.535156c0-14.136719 11.460938-25.601562 25.597657-25.601562h34.132812c4.714844 0 8.535157 3.824218 8.535157 8.535156 0 4.710937-3.820313 8.535156-8.535157 8.535156h-34.132812c-4.710938 0-8.53125 3.820312-8.53125 8.53125v8.535156c0 2.261719-.898438 4.433594-2.5 6.03125-1.601563 1.601563-3.769531 2.5-6.035157 2.5zm0 0" fill="#a5a5a4"/><path d="m486.398438 273.066406c-4.710938 0-8.53125-3.820312-8.53125-8.53125v-8.535156c0-4.710938-3.820313-8.53125-8.535157-8.53125h-34.132812c-4.710938 0-8.53125-3.824219-8.53125-8.535156 0-4.710938 3.820312-8.535156 8.53125-8.535156h34.132812c14.140625 0 25.601563 11.464843 25.601563 25.601562v8.535156c0 2.261719-.898438 4.433594-2.5 6.03125-1.601563 1.601563-3.769532 2.5-6.035156 2.5zm0 0" fill="#a5a5a4"/><path d="m349.867188 162.132812h-51.199219c-4.714844 0-8.535157-3.820312-8.535157-8.53125 0-4.714843 3.820313-8.535156 8.535157-8.535156h51.199219c4.710937 0 8.53125 3.820313 8.53125 8.535156 0 4.710938-3.820313 8.53125-8.53125 8.53125zm0 0" fill="#c03a2b"/><path d="m162.132812 170.667969c0 42.414062-34.382812 76.800781-76.800781 76.800781-42.414062 0-76.796875-34.386719-76.796875-76.800781 0-42.417969 34.382813-76.800781 76.796875-76.800781 42.417969 0 76.800781 34.382812 76.800781 76.800781zm0 0" fill="#d1d4d1"/><path d="m89.601562 179.199219h-21.335937c-4.710937 0-8.53125-3.820313-8.53125-8.53125 0-4.714844 3.820313-8.535157 8.53125-8.535157h21.335937c4.710938 0 8.53125 3.820313 8.53125 8.535157 0 4.710937-3.820312 8.53125-8.53125 8.53125zm0 0" fill="#4482c3"/><path d="m503.464844 503.46875h-494.929688c-4.714844 0-8.535156-3.824219-8.535156-8.535156 0-4.710938 3.820312-8.535156 8.535156-8.535156h494.929688c4.714844 0 8.535156 3.824218 8.535156 8.535156 0 4.710937-3.820312 8.535156-8.535156 8.535156zm0 0" fill="#5e5f62"/><path d="m89.601562 179.199219h-21.335937c-4.710937 0-8.53125-3.820313-8.53125-8.53125v-34.132813c0-9.425781 7.640625-17.066406 17.066406-17.066406h12.800781c16.492188 0 29.863282 13.371094 29.863282 29.863281 0 16.496094-13.371094 29.867188-29.863282 29.867188zm-12.800781-17.066407h12.800781c7.066407 0 12.796876-5.730468 12.796876-12.800781 0-7.066406-5.730469-12.796875-12.796876-12.796875h-12.800781zm0 0" fill="#4482c3"/><path d="m89.601562 221.867188h-12.800781c-9.425781 0-17.066406-7.640626-17.066406-17.066407v-34.132812c0-4.714844 3.820313-8.535157 8.53125-8.535157h21.335937c16.492188 0 29.863282 13.371094 29.863282 29.867188s-13.371094 29.867188-29.863282 29.867188zm-12.800781-42.667969v25.601562h12.800781c7.066407 0 12.796876-5.730469 12.796876-12.800781s-5.730469-12.800781-12.796876-12.800781zm0 0" fill="#4482c3"/><path d="m68.265625 245.589844h34.132813v215.210937h-34.132813zm0 0" fill="#a5a5a4"/><path d="m25.601562 460.800781h119.464844c9.425782 0 17.066406 7.640625 17.066406 17.066407v17.066406h-153.597656v-17.066406c0-9.425782 7.640625-17.066407 17.066406-17.066407zm0 0" fill="#2c2f38"/><path d="m435.199219 341.332031v85.335938c-.027344 9.414062-7.652344 17.039062-17.066407 17.066406h-187.734374c-9.414063-.027344-17.035157-7.652344-17.066407-17.066406v-85.335938zm0 0" fill="#c03a2b"/><path d="m213.332031 187.734375h221.867188v34.132813h-221.867188zm0 0" fill="#c03a2b"/><path d="m213.332031 221.867188h221.867188v119.464843h-221.867188zm0 0" fill="#802f34"/><path d="m273.066406 443.734375v34.132813c0 9.425781-7.640625 17.066406-17.066406 17.066406h-8.535156c-9.425782 0-17.066406-7.640625-17.066406-17.066406v-34.132813zm0 0" fill="#2c2f38"/><path d="m418.132812 443.734375v34.132813c0 9.425781-7.640624 17.066406-17.066406 17.066406h-8.53125c-9.425781 0-17.070312-7.640625-17.070312-17.066406v-34.132813zm0 0" fill="#2c2f38"/><path d="m153.601562 264.535156h17.066407c4.710937 0 8.53125 3.820313 8.53125 8.53125v51.199219c0 4.714844-3.820313 8.535156-8.53125 8.535156h-17.066407c-4.714843 0-8.535156-3.820312-8.535156-8.535156v-51.199219c0-4.710937 3.820313-8.53125 8.535156-8.53125zm0 0" fill="#c03a2b"/><path d="m477.867188 264.535156h17.066406c4.710937 0 8.53125 3.820313 8.53125 8.53125v51.199219c0 4.714844-3.820313 8.535156-8.53125 8.535156h-17.066406c-4.714844 0-8.535157-3.820312-8.535157-8.535156v-51.199219c0-4.710937 3.820313-8.53125 8.535157-8.53125zm0 0" fill="#c03a2b"/><path d="m293.394531 409.601562h-37.394531c-4.710938 0-8.535156-3.820312-8.535156-8.535156v-17.066406c0-4.710938 3.824218-8.53125 8.535156-8.53125h28.859375c3.230469 0 6.183594 1.828125 7.628906 4.71875l8.535157 17.066406c1.320312 2.644532 1.179687 5.78125-.375 8.296875-1.554688 2.515625-4.300782 4.046875-7.253907 4.050781zm0 0" fill="#f0c419"/><path d="m355.140625 409.601562h37.394531c4.710938 0 8.53125-3.820312 8.53125-8.535156v-17.066406c0-4.710938-3.820312-8.53125-8.53125-8.53125h-28.863281c-3.230469 0-6.183594 1.828125-7.628906 4.71875l-8.53125 17.066406c-1.320313 2.644532-1.179688 5.78125.375 8.296875 1.550781 2.515625 4.296875 4.046875 7.253906 4.050781zm0 0" fill="#f0c419"/><g fill="#e6e7e8"><path d="m247.464844 290.132812c-3.449219 0-6.558594-2.078124-7.878906-5.265624-1.320313-3.191407-.59375-6.859376 1.847656-9.300782l25.601562-25.597656c3.347656-3.234375 8.667969-3.1875 11.960938.101562 3.292968 3.292969 3.335937 8.613282.105468 11.964844l-25.601562 25.597656c-1.601562 1.601563-3.769531 2.5-6.035156 2.5zm0 0"/><path d="m273.066406 315.734375c-3.449218 0-6.5625-2.082031-7.882812-5.269531-1.320313-3.1875-.589844-6.855469 1.851562-9.296875l51.199219-51.199219c3.347656-3.234375 8.667969-3.1875 11.960937.101562 3.292969 3.292969 3.339844 8.613282.105469 11.964844l-51.199219 51.199219c-1.601562 1.597656-3.773437 2.5-6.035156 2.5zm0 0"/><path d="m221.867188 34.132812h-102.402344c-9.414063-.027343-17.035156-7.652343-17.066406-17.066406-.023438-4.527344 1.792968-8.871094 5.035156-12.03125 3.164062-3.242187 7.503906-5.0585935 12.03125-5.035156h238.933594c9.414062.0273438 17.039062 7.652344 17.066406 17.066406.027344 4.527344-1.792969 8.871094-5.03125 12.03125-3.164063 3.242188-7.507813 5.058594-12.035156 5.035156v17.066407h102.402343c9.414063.027343 17.039063 7.652343 17.066407 17.066406-.070313 9.398437-7.671876 17-17.066407 17.066406h-238.933593c-9.414063-.027343-17.039063-7.652343-17.066407-17.066406.070313-9.394531 7.667969-16.996094 17.066407-17.066406zm0 0"/></g></svg>